<svg width="20" height="20" viewBox="0 0 20 20" fill="none" xmlns="http://www.w3.org/2000/svg">
<path fill-rule="evenodd" clip-rule="evenodd" d="M3.33334 10C3.33334 9.53978 3.70644 9.16669 4.16668 9.16669H15.8333C16.2936 9.16669 16.6667 9.53978 16.6667 10C16.6667 10.4603 16.2936 10.8334 15.8333 10.8334H4.16668C3.70644 10.8334 3.33334 10.4603 3.33334 10Z" fill="white"/>
<path fill-rule="evenodd" clip-rule="evenodd" d="M9.41073 3.57739C9.73617 3.25195 10.2638 3.25195 10.5892 3.57739L16.4226 9.41072C16.748 9.73616 16.748 10.2638 16.4226 10.5892L10.5892 16.4226C10.2638 16.748 9.73617 16.748 9.41073 16.4226C9.0853 16.0971 9.0853 15.5695 9.41073 15.2441L14.6548 9.99998L9.41073 4.7559C9.0853 4.43047 9.0853 3.90283 9.41073 3.57739Z" fill="white"/>
</svg>
