<svg width="11" height="20" viewBox="0 0 11 20" fill="none" xmlns="http://www.w3.org/2000/svg">
<path fill-rule="evenodd" clip-rule="evenodd" d="M3.96447 2.29784C4.90215 1.36016 6.17392 0.833374 7.5 0.833374H10C10.4602 0.833374 10.8333 1.20647 10.8333 1.66671V5.00004C10.8333 5.46028 10.4602 5.83337 10 5.83337L7.5 5.83337V7.50004H10C10.2566 7.50004 10.4989 7.61827 10.6568 7.82053C10.8148 8.02279 10.8707 8.28654 10.8085 8.53549L9.97512 11.8688C9.88238 12.2398 9.54906 12.5 9.16667 12.5H7.5V18.3334C7.5 18.7936 7.1269 19.1667 6.66667 19.1667H3.33333C2.8731 19.1667 2.5 18.7936 2.5 18.3334V12.5H0.833333C0.373096 12.5 0 12.1269 0 11.6667V8.33337C0 7.87314 0.373096 7.50004 0.833333 7.50004H2.5V5.83337C2.5 4.50729 3.02678 3.23552 3.96447 2.29784ZM7.5 2.50004C6.61595 2.50004 5.7681 2.85123 5.14298 3.47635C4.51786 4.10147 4.16667 4.94932 4.16667 5.83337V8.33337C4.16667 8.79361 3.79357 9.16671 3.33333 9.16671H1.66667V10.8334H3.33333C3.79357 10.8334 4.16667 11.2065 4.16667 11.6667V17.5H5.83333V11.6667C5.83333 11.2065 6.20643 10.8334 6.66667 10.8334H8.51602L8.93269 9.16671H6.66667C6.20643 9.16671 5.83333 8.79361 5.83333 8.33337V5.83337C5.83333 5.39135 6.00893 4.96742 6.32149 4.65486C6.63405 4.3423 7.05797 4.16671 7.5 4.16671H9.16667V2.50004H7.5Z" fill="white"/>
</svg>
