<svg width="33" height="20" viewBox="0 0 33 20" fill="none" xmlns="http://www.w3.org/2000/svg">
<g clip-path="url(#clip0_0_298)">
<path d="M10.3124 20C16.0078 20 20.6249 15.5228 20.6249 10C20.6249 4.47715 16.0078 0 10.3124 0C4.61704 0 0 4.47715 0 10C0 15.5228 4.61704 20 10.3124 20Z" fill="#EB001B"/>
<path d="M22.6876 20C28.383 20 33 15.5228 33 10C33 4.47715 28.383 0 22.6876 0C16.9922 0 12.3751 4.47715 12.3751 10C12.3751 15.5228 16.9922 20 22.6876 20Z" fill="#F79E1B"/>
<path fill-rule="evenodd" clip-rule="evenodd" d="M16.5001 1.99915C19.0049 3.82356 20.6251 6.72824 20.6251 9.99988C20.6251 13.2715 19.0049 16.1762 16.5001 18.0006C13.9953 16.1762 12.3751 13.2715 12.3751 9.99988C12.3751 6.72824 13.9953 3.82356 16.5001 1.99915Z" fill="#FF5F00"/>
</g>
<defs>
<clipPath id="clip0_0_298">
<rect width="33" height="20" fill="white"/>
</clipPath>
</defs>
</svg>
