<svg width="20" height="20" viewBox="0 0 20 20" fill="none" xmlns="http://www.w3.org/2000/svg">
<path fill-rule="evenodd" clip-rule="evenodd" d="M3.16498 6.99998C3.16498 3.22511 6.22511 0.164978 9.99998 0.164978C13.7748 0.164978 16.835 3.22511 16.835 6.99998V13C16.835 16.7748 13.7748 19.835 9.99998 19.835C6.22511 19.835 3.16498 16.7748 3.16498 13V6.99998ZM9.99998 1.83498C7.14743 1.83498 4.83498 4.14743 4.83498 6.99998V13C4.83498 15.8525 7.14743 18.165 9.99998 18.165C12.8525 18.165 15.165 15.8525 15.165 13V6.99998C15.165 4.14743 12.8525 1.83498 9.99998 1.83498Z" fill="white"/>
<path fill-rule="evenodd" clip-rule="evenodd" d="M9.99998 5.16498C10.4611 5.16498 10.835 5.53882 10.835 5.99998V8.99998C10.835 9.46114 10.4611 9.83498 9.99998 9.83498C9.53882 9.83498 9.16498 9.46114 9.16498 8.99998V5.99998C9.16498 5.53882 9.53882 5.16498 9.99998 5.16498Z" fill="white"/>
</svg>
