<svg width="20" height="20" viewBox="0 0 20 20" fill="none" xmlns="http://www.w3.org/2000/svg">
<path fill-rule="evenodd" clip-rule="evenodd" d="M9.16669 3.33329C5.94503 3.33329 3.33335 5.94496 3.33335 9.16663C3.33335 12.3883 5.94503 15 9.16669 15C12.3883 15 15 12.3883 15 9.16663C15 5.94496 12.3883 3.33329 9.16669 3.33329ZM1.66669 9.16663C1.66669 5.02449 5.02455 1.66663 9.16669 1.66663C13.3088 1.66663 16.6667 5.02449 16.6667 9.16663C16.6667 13.3088 13.3088 16.6666 9.16669 16.6666C5.02455 16.6666 1.66669 13.3088 1.66669 9.16663Z" fill="white"/>
<path fill-rule="evenodd" clip-rule="evenodd" d="M13.2858 13.2857C13.6112 12.9603 14.1388 12.9603 14.4643 13.2857L18.0893 16.9107C18.4147 17.2361 18.4147 17.7638 18.0893 18.0892C17.7638 18.4147 17.2362 18.4147 16.9108 18.0892L13.2858 14.4642C12.9603 14.1388 12.9603 13.6111 13.2858 13.2857Z" fill="white"/>
</svg>
