<svg width="21" height="20" viewBox="0 0 21 20" fill="none" xmlns="http://www.w3.org/2000/svg">
<path fill-rule="evenodd" clip-rule="evenodd" d="M19.4226 1.07739C19.748 1.40283 19.748 1.93047 19.4226 2.2559L10.2559 11.4226C9.9305 11.748 9.40286 11.748 9.07742 11.4226C8.75198 11.0971 8.75198 10.5695 9.07742 10.2441L18.2441 1.07739C18.5695 0.751954 19.0972 0.751954 19.4226 1.07739Z" fill="white"/>
<path fill-rule="evenodd" clip-rule="evenodd" d="M19.4226 1.07741C19.649 1.30378 19.7257 1.63981 19.6199 1.94196L13.7866 18.6086C13.6737 18.9311 13.3754 19.152 13.034 19.166C12.6926 19.1799 12.3773 18.984 12.2385 18.6718L9.03534 11.4647L1.82823 8.26151C1.516 8.12274 1.32011 7.80743 1.33404 7.46603C1.34797 7.12463 1.56889 6.82633 1.89139 6.71345L18.5581 0.880121C18.8602 0.774366 19.1962 0.851049 19.4226 1.07741ZM4.42591 7.59217L10.0051 10.0718C10.1937 10.1556 10.3444 10.3064 10.4282 10.4949L12.9078 16.0741L17.475 3.02498L4.42591 7.59217Z" fill="white"/>
</svg>
