<svg width="20" height="20" viewBox="0 0 20 20" fill="none" xmlns="http://www.w3.org/2000/svg">
<path fill-rule="evenodd" clip-rule="evenodd" d="M4.33335 1.16671C4.49073 0.956869 4.73772 0.833374 5.00002 0.833374H15C15.2623 0.833374 15.5093 0.956869 15.6667 1.16671L18.1667 4.50004C18.2749 4.64429 18.3334 4.81973 18.3334 5.00004V16.6667C18.3334 17.3297 18.07 17.9656 17.6011 18.4345C17.1323 18.9033 16.4964 19.1667 15.8334 19.1667H4.16669C3.50365 19.1667 2.86776 18.9033 2.39892 18.4345C1.93008 17.9656 1.66669 17.3297 1.66669 16.6667V5.00004C1.66669 4.81973 1.72517 4.64429 1.83335 4.50004L4.33335 1.16671ZM5.41669 2.50004L3.33335 5.27782V16.6667C3.33335 16.8877 3.42115 17.0997 3.57743 17.256C3.73371 17.4122 3.94567 17.5 4.16669 17.5H15.8334C16.0544 17.5 16.2663 17.4122 16.4226 17.256C16.5789 17.0997 16.6667 16.8877 16.6667 16.6667V5.27782L14.5834 2.50004H5.41669Z" fill="white"/>
<path fill-rule="evenodd" clip-rule="evenodd" d="M1.66669 4.99996C1.66669 4.53972 2.03978 4.16663 2.50002 4.16663H17.5C17.9603 4.16663 18.3334 4.53972 18.3334 4.99996C18.3334 5.4602 17.9603 5.83329 17.5 5.83329H2.50002C2.03978 5.83329 1.66669 5.4602 1.66669 4.99996Z" fill="white"/>
<path fill-rule="evenodd" clip-rule="evenodd" d="M6.66665 7.5C7.12688 7.5 7.49998 7.8731 7.49998 8.33333C7.49998 8.99637 7.76337 9.63226 8.23221 10.1011C8.70105 10.5699 9.33694 10.8333 9.99998 10.8333C10.663 10.8333 11.2989 10.5699 11.7677 10.1011C12.2366 9.63226 12.5 8.99637 12.5 8.33333C12.5 7.8731 12.8731 7.5 13.3333 7.5C13.7936 7.5 14.1666 7.8731 14.1666 8.33333C14.1666 9.4384 13.7277 10.4982 12.9463 11.2796C12.1649 12.061 11.105 12.5 9.99998 12.5C8.89491 12.5 7.8351 12.061 7.0537 11.2796C6.2723 10.4982 5.83331 9.4384 5.83331 8.33333C5.83331 7.8731 6.20641 7.5 6.66665 7.5Z" fill="white"/>
</svg>
