<svg width="20" height="20" viewBox="0 0 20 20" fill="none" xmlns="http://www.w3.org/2000/svg">
<g clip-path="url(#clip0_35_350)">
<path fill-rule="evenodd" clip-rule="evenodd" d="M9.99987 2.5C9.99994 2.5 9.99999 2.5 9.99999 3.33333L9.99998 4.16667L9.93709 4.16676L9.75474 4.16741C9.59662 4.16815 9.36874 4.16963 9.09067 4.17261C8.5342 4.17856 7.7783 4.19046 6.97891 4.21422C6.17818 4.23801 5.34049 4.27351 4.61842 4.32618C3.87833 4.38016 3.32842 4.448 3.05445 4.52016C2.80553 4.59167 2.57964 4.72711 2.39927 4.91305C2.22333 5.09444 2.09674 5.31766 2.03133 5.56146C1.78171 6.95614 1.65964 8.37068 1.66664 9.78755L1.66669 9.7969C1.65776 11.2196 1.77891 12.6401 2.02872 14.0406C2.10091 14.272 2.22876 14.4823 2.4013 14.6531C2.58207 14.832 2.80579 14.9614 3.05097 15.0289C3.32375 15.1014 3.87518 15.1696 4.61842 15.2238C5.34049 15.2765 6.17818 15.312 6.97891 15.3358C7.7783 15.3595 8.5342 15.3714 9.09067 15.3774C9.36874 15.3804 9.59662 15.3819 9.75474 15.3826L9.93709 15.3832H10.0629L10.2452 15.3826C10.4034 15.3819 10.6312 15.3804 10.9093 15.3774C11.4658 15.3714 12.2217 15.3595 13.0211 15.3358C13.8218 15.312 14.6595 15.2765 15.3816 15.2238C16.1216 15.1698 16.6716 15.102 16.9455 15.0298C17.1944 14.9583 17.4203 14.8229 17.6007 14.6369C17.7767 14.4556 17.9032 14.2323 17.9686 13.9885C18.2163 12.6044 18.3384 11.2008 18.3333 9.79466L18.3333 9.78643C18.3423 8.35882 18.2202 6.93341 17.9687 5.52816C17.9033 5.28434 17.7767 5.06111 17.6007 4.87972C17.4224 4.6959 17.1996 4.56144 16.9541 4.48931C16.6708 4.42266 16.1188 4.36123 15.3868 4.31248C14.6633 4.2643 13.8244 4.23185 13.0232 4.21011C12.2232 4.18841 11.4668 4.17753 10.9101 4.1721C10.6318 4.16938 10.4038 4.16802 10.2456 4.16734L10.063 4.16675L9.99998 4.16667L9.99999 3.33333C9.99999 2.5 9.99994 2.5 9.99987 2.5L10.0664 2.50009L10.2527 2.50069C10.4136 2.50138 10.6447 2.50276 10.9264 2.50551C11.4894 2.51101 12.2559 2.52201 13.0684 2.54406C13.8797 2.56607 14.743 2.59924 15.4976 2.6495C16.2306 2.69832 16.9262 2.76681 17.3643 2.87379C17.3741 2.87617 17.3838 2.87874 17.3935 2.88147C17.9269 3.03238 18.4111 3.32139 18.797 3.71929C19.183 4.11719 19.4571 4.60991 19.5917 5.14766L18.7833 5.35L19.6034 5.20207C19.8767 6.71683 20.0094 8.25358 20 9.79274C20.0052 11.3089 19.8725 12.8224 19.6034 14.3145C19.6001 14.3328 19.5962 14.351 19.5917 14.369C19.4571 14.9068 19.183 15.3995 18.797 15.7974C18.4111 16.1953 17.9269 16.4843 17.3935 16.6352L17.382 16.6385C16.9373 16.7574 16.2355 16.8326 15.5028 16.8861C14.7467 16.9412 13.8823 16.9776 13.0706 17.0017C12.2575 17.0259 11.4905 17.0379 10.9271 17.044C10.6453 17.047 10.4141 17.0485 10.2531 17.0492L10.0666 17.0499L10.0001 17.05L9.93341 17.0499L9.74692 17.0492C9.58591 17.0485 9.35467 17.047 9.07284 17.044C8.50953 17.0379 7.74251 17.0259 6.9294 17.0017C6.11763 16.9776 5.25324 16.9412 4.49718 16.8861C3.76443 16.8326 3.06273 16.7573 2.61802 16.6384L2.61339 16.6371C2.09083 16.4941 1.61398 16.2188 1.22891 15.8377C0.843846 15.4566 0.563578 14.9826 0.415189 14.4616C0.407657 14.4351 0.401438 14.4083 0.396556 14.3813C0.123357 12.8667 -0.0093998 11.3301 -2.44017e-05 9.79111C-0.00728627 8.26363 0.12546 6.73869 0.39655 5.23544C0.399845 5.21717 0.403751 5.19901 0.408259 5.18099C0.542858 4.64324 0.816984 4.15053 1.20295 3.75262C1.58892 3.35472 2.07305 3.06572 2.60646 2.91481L2.618 2.91154C3.0627 2.79261 3.76443 2.71737 4.49718 2.66393C5.25324 2.60878 6.11763 2.57241 6.9294 2.54828C7.74251 2.52412 8.50953 2.51206 9.07284 2.50604C9.35467 2.50302 9.58591 2.50151 9.74692 2.50076L9.93341 2.5001L9.99987 2.5Z" fill="white"/>
<path fill-rule="evenodd" clip-rule="evenodd" d="M7.70597 6.34628C7.96248 6.19707 8.27899 6.19552 8.53695 6.34222L13.3286 9.06722C13.5891 9.21536 13.75 9.49195 13.75 9.79161C13.75 10.0913 13.5891 10.3679 13.3286 10.516L8.53695 13.241C8.27899 13.3877 7.96248 13.3861 7.70597 13.2369C7.44946 13.0877 7.29166 12.8134 7.29166 12.5166V7.06661C7.29166 6.76986 7.44946 6.4955 7.70597 6.34628ZM8.95832 8.49919V11.084L11.2309 9.79161L8.95832 8.49919Z" fill="white"/>
</g>
<defs>
<clipPath id="clip0_35_350">
<rect width="20" height="20" fill="white"/>
</clipPath>
</defs>
</svg>
